<svg id="visual" viewBox="0 0 2400 1200" width="2400" height="1200" xmlns="http://www.w3.org/2000/svg" xmlns:xlink="http://www.w3.org/1999/xlink" version="1.1"><path d="M0 265L36.3 237C72.7 209 145.3 153 218 141C290.7 129 363.3 161 436.2 199C509 237 582 281 654.8 273C727.7 265 800.3 205 873 191C945.7 177 1018.3 209 1091 203C1163.7 197 1236.3 153 1309 149C1381.7 145 1454.3 181 1527 195C1599.7 209 1672.3 201 1745.2 215C1818 229 1891 265 1963.8 249C2036.7 233 2109.3 165 2182 163C2254.7 161 2327.3 225 2363.7 257L2400 289L2400 0L2363.7 0C2327.3 0 2254.7 0 2182 0C2109.3 0 2036.7 0 1963.8 0C1891 0 1818 0 1745.2 0C1672.3 0 1599.7 0 1527 0C1454.3 0 1381.7 0 1309 0C1236.3 0 1163.7 0 1091 0C1018.3 0 945.7 0 873 0C800.3 0 727.7 0 654.8 0C582 0 509 0 436.2 0C363.3 0 290.7 0 218 0C145.3 0 72.7 0 36.3 0L0 0Z" fill="#715df2"></path><path d="M0 385L36.3 375C72.7 365 145.3 345 218 331C290.7 317 363.3 309 436.2 323C509 337 582 373 654.8 373C727.7 373 800.3 337 873 325C945.7 313 1018.3 325 1091 309C1163.7 293 1236.3 249 1309 267C1381.7 285 1454.3 365 1527 403C1599.7 441 1672.3 437 1745.2 427C1818 417 1891 401 1963.8 383C2036.7 365 2109.3 345 2182 359C2254.7 373 2327.3 421 2363.7 445L2400 469L2400 287L2363.7 255C2327.3 223 2254.7 159 2182 161C2109.3 163 2036.7 231 1963.8 247C1891 263 1818 227 1745.2 213C1672.3 199 1599.7 207 1527 193C1454.3 179 1381.7 143 1309 147C1236.3 151 1163.7 195 1091 201C1018.3 207 945.7 175 873 189C800.3 203 727.7 263 654.8 271C582 279 509 235 436.2 197C363.3 159 290.7 127 218 139C145.3 151 72.7 207 36.3 235L0 263Z" fill="#6837fc"></path><path d="M0 601L36.3 589C72.7 577 145.3 553 218 561C290.7 569 363.3 609 436.2 645C509 681 582 713 654.8 757C727.7 801 800.3 857 873 831C945.7 805 1018.3 697 1091 633C1163.7 569 1236.3 549 1309 569C1381.7 589 1454.3 649 1527 689C1599.7 729 1672.3 749 1745.2 763C1818 777 1891 785 1963.8 779C2036.7 773 2109.3 753 2182 729C2254.7 705 2327.3 677 2363.7 663L2400 649L2400 467L2363.7 443C2327.3 419 2254.7 371 2182 357C2109.3 343 2036.7 363 1963.8 381C1891 399 1818 415 1745.2 425C1672.3 435 1599.7 439 1527 401C1454.3 363 1381.7 283 1309 265C1236.3 247 1163.7 291 1091 307C1018.3 323 945.7 311 873 323C800.3 335 727.7 371 654.8 371C582 371 509 335 436.2 321C363.3 307 290.7 315 218 329C145.3 343 72.7 363 36.3 373L0 383Z" fill="#6600ff"></path><path d="M0 781L36.3 771C72.7 761 145.3 741 218 735C290.7 729 363.3 737 436.2 773C509 809 582 873 654.8 917C727.7 961 800.3 985 873 941C945.7 897 1018.3 785 1091 737C1163.7 689 1236.3 705 1309 731C1381.7 757 1454.3 793 1527 817C1599.7 841 1672.3 853 1745.2 865C1818 877 1891 889 1963.8 887C2036.7 885 2109.3 869 2182 853C2254.7 837 2327.3 821 2363.7 813L2400 805L2400 647L2363.7 661C2327.3 675 2254.7 703 2182 727C2109.3 751 2036.7 771 1963.8 777C1891 783 1818 775 1745.2 761C1672.3 747 1599.7 727 1527 687C1454.3 647 1381.7 587 1309 567C1236.3 547 1163.7 567 1091 631C1018.3 695 945.7 803 873 829C800.3 855 727.7 799 654.8 755C582 711 509 679 436.2 643C363.3 607 290.7 567 218 559C145.3 551 72.7 575 36.3 587L0 599Z" fill="#6837fc"></path><path d="M0 1201L36.3 1201C72.7 1201 145.3 1201 218 1201C290.7 1201 363.3 1201 436.2 1201C509 1201 582 1201 654.8 1201C727.7 1201 800.3 1201 873 1201C945.7 1201 1018.3 1201 1091 1201C1163.7 1201 1236.3 1201 1309 1201C1381.7 1201 1454.3 1201 1527 1201C1599.7 1201 1672.3 1201 1745.2 1201C1818 1201 1891 1201 1963.8 1201C2036.7 1201 2109.3 1201 2182 1201C2254.7 1201 2327.3 1201 2363.7 1201L2400 1201L2400 803L2363.7 811C2327.3 819 2254.7 835 2182 851C2109.3 867 2036.7 883 1963.8 885C1891 887 1818 875 1745.2 863C1672.3 851 1599.7 839 1527 815C1454.3 791 1381.7 755 1309 729C1236.3 703 1163.7 687 1091 735C1018.3 783 945.7 895 873 939C800.3 983 727.7 959 654.8 915C582 871 509 807 436.2 771C363.3 735 290.7 727 218 733C145.3 739 72.7 759 36.3 769L0 779Z" fill="#715df2"></path></svg>